<svg width="142" height="160" viewBox="0 0 142 160" fill="none" xmlns="http://www.w3.org/2000/svg">
<mask id="mask0" mask-type="alpha" maskUnits="userSpaceOnUse" x="0" y="0" width="142" height="160">
<path fill-rule="evenodd" clip-rule="evenodd" d="M8 0C3.58172 0 0 3.58172 0 8V152C0 156.418 3.58172 160 8 160H58H72H134C138.418 160 142 156.418 142 152V24C142 19.5817 138.418 16 134 16H80V8C80 3.58172 76.4183 0 72 0H8Z" fill="#0190F8"/>
</mask>
<g mask="url(#mask0)">
<g filter="url(#filter0_d)">
<rect x="50" y="16" width="92" height="144" rx="8" fill="white"/>
</g>
<rect x="54" y="28" width="84" height="120" rx="5" fill="#F5FAFF"/>
<rect x="54.25" y="28.25" width="83.5" height="119.5" rx="4.75" stroke="#C7E3FF" stroke-opacity="0.5" stroke-width="0.5"/>
<g filter="url(#filter1_d)">
<rect x="62" y="36" width="68" height="90" rx="2" fill="white"/>
</g>
<circle cx="96" cy="60" r="10" stroke="#003D84" stroke-opacity="0.1" stroke-width="4"/>
<path d="M96 50C101.523 50 106 54.4772 106 60C106 65.5228 101.523 70 96 70C90.4772 70 86 65.5228 86 60C86 57.2318 87.1248 54.7263 88.9422 52.9156" stroke="#1BE177" stroke-width="4"/>
<rect x="74" y="78" width="44" height="4" rx="2" fill="#003D84" fill-opacity="0.1"/>
<rect x="74" y="90" width="44" height="4" rx="2" fill="#003D84" fill-opacity="0.1"/>
<rect x="74" y="102" width="20" height="4" rx="2" fill="#003D84" fill-opacity="0.1"/>
<rect x="99" y="102" width="20" height="4" rx="2" fill="#003D84" fill-opacity="0.1"/>
<rect x="74" y="110" width="20" height="4" rx="2" fill="#003D84" fill-opacity="0.1"/>
<rect x="99" y="110" width="20" height="4" rx="2" fill="#003D84" fill-opacity="0.1"/>
<rect x="74" y="84" width="44" height="4" rx="2" fill="#003D84" fill-opacity="0.1"/>
<circle cx="128" cy="137" r="6" fill="#13CE95"/>
<path d="M128 135V139M130 137H126" stroke="white" stroke-width="1.5" stroke-linecap="round"/>
<g filter="url(#filter2_d)">
<rect width="80" height="160" rx="8" fill="white"/>
</g>
<mask id="path-18-inside-1" fill="white">
<path fill-rule="evenodd" clip-rule="evenodd" d="M9 4C6.23858 4 4 6.23858 4 9V151C4 153.761 6.23857 156 9 156H71C73.7614 156 76 153.761 76 151V9C76 6.23858 73.7614 4 71 4H58C56.8955 4 56 4.89543 56 6V4C56 6.80893 56 8.21339 55.3257 9.22227C55.0342 9.65904 54.6592 10.034 54.2222 10.3259C53.2134 11 51.8091 11 49 11H31C28.1909 11 26.7866 11 25.7778 10.3259C25.3408 10.034 24.9658 9.65904 24.6743 9.22227C24 8.21339 24 6.80893 24 4V6C24 4.89543 23.1045 4 22 4H9Z"/>
</mask>
<path fill-rule="evenodd" clip-rule="evenodd" d="M9 4C6.23858 4 4 6.23858 4 9V151C4 153.761 6.23857 156 9 156H71C73.7614 156 76 153.761 76 151V9C76 6.23858 73.7614 4 71 4H58C56.8955 4 56 4.89543 56 6V4C56 6.80893 56 8.21339 55.3257 9.22227C55.0342 9.65904 54.6592 10.034 54.2222 10.3259C53.2134 11 51.8091 11 49 11H31C28.1909 11 26.7866 11 25.7778 10.3259C25.3408 10.034 24.9658 9.65904 24.6743 9.22227C24 8.21339 24 6.80893 24 4V6C24 4.89543 23.1045 4 22 4H9Z" fill="#F5FAFF"/>
<path d="M55.3257 9.22227L54.91 8.94443L54.9098 8.94471L55.3257 9.22227ZM54.2222 10.3259L53.9445 9.91008L53.9444 9.91016L54.2222 10.3259ZM25.7778 10.3259L26.0556 9.91016L26.0555 9.91008L25.7778 10.3259ZM24.6743 9.22227L25.0902 8.94471L25.09 8.94443L24.6743 9.22227ZM4.5 9C4.5 6.51472 6.51472 4.5 9 4.5V3.5C5.96243 3.5 3.5 5.96243 3.5 9H4.5ZM4.5 151V9H3.5V151H4.5ZM9 155.5C6.51472 155.5 4.5 153.485 4.5 151H3.5C3.5 154.038 5.96243 156.5 9 156.5V155.5ZM71 155.5H9V156.5H71V155.5ZM75.5 151C75.5 153.485 73.4853 155.5 71 155.5V156.5C74.0376 156.5 76.5 154.038 76.5 151H75.5ZM75.5 9V151H76.5V9H75.5ZM71 4.5C73.4853 4.5 75.5 6.51472 75.5 9H76.5C76.5 5.96243 74.0376 3.5 71 3.5V4.5ZM58 4.5H71V3.5H58V4.5ZM56.5 6C56.5 5.17159 57.1716 4.5 58 4.5V3.5C56.6194 3.5 55.5 4.61928 55.5 6H56.5ZM55.5 4V6H56.5V4H55.5ZM55.7414 9.50012C56.1426 8.89982 56.3248 8.20467 56.4131 7.33677C56.5006 6.47724 56.5 5.39406 56.5 4H55.5C55.5 5.41487 55.4994 6.43838 55.4183 7.23554C55.338 8.02433 55.1831 8.53585 54.91 8.94443L55.7414 9.50012ZM54.4998 10.7417C54.9915 10.4133 55.4135 9.99139 55.7416 9.49984L54.9098 8.94471C54.6549 9.32669 54.3268 9.65474 53.9445 9.91008L54.4998 10.7417ZM49 11.5C50.3941 11.5 51.4773 11.5006 52.3368 11.4132C53.2046 11.3249 53.8997 11.1427 54.5 10.7416L53.9444 9.91016C53.5358 10.1832 53.0244 10.3381 52.2356 10.4183C51.4385 10.4994 50.4149 10.5 49 10.5V11.5ZM31 11.5H49V10.5H31V11.5ZM25.5 10.7416C26.1003 11.1427 26.7954 11.3249 27.6632 11.4132C28.5227 11.5006 29.6059 11.5 31 11.5V10.5C29.5851 10.5 28.5615 10.4994 27.7644 10.4183C26.9756 10.3381 26.4642 10.1832 26.0556 9.91016L25.5 10.7416ZM24.2584 9.49984C24.5865 9.99139 25.0085 10.4133 25.5002 10.7417L26.0555 9.91008C25.6732 9.65474 25.3451 9.32669 25.0902 8.94471L24.2584 9.49984ZM23.5 4C23.5 5.39406 23.4994 6.47724 23.5869 7.33677C23.6752 8.20467 23.8574 8.89982 24.2586 9.50012L25.09 8.94443C24.8169 8.53585 24.662 8.02433 24.5817 7.23554C24.5006 6.43838 24.5 5.41487 24.5 4H23.5ZM24.5 6V4H23.5V6H24.5ZM22 4.5C22.8284 4.5 23.5 5.17159 23.5 6H24.5C24.5 4.61928 23.3806 3.5 22 3.5V4.5ZM9 4.5H22V3.5H9V4.5Z" fill="#C7E3FF" fill-opacity="0.5" mask="url(#path-18-inside-1)"/>
<rect x="12" y="52" width="56" height="4" rx="2" fill="#003D84" fill-opacity="0.1"/>
<rect x="12" y="58" width="56" height="4" rx="2" fill="#003D84" fill-opacity="0.1"/>
<rect x="12" y="64" width="56" height="4" rx="2" fill="#003D84" fill-opacity="0.1"/>
<rect x="12" y="70" width="56" height="4" rx="2" fill="#003D84" fill-opacity="0.1"/>
<ellipse cx="40" cy="32" rx="12" ry="12" fill="#9544F2" fill-opacity="0.15"/>
<path fill-rule="evenodd" clip-rule="evenodd" d="M39.999 32C42.2081 32 43.999 30.2091 43.999 28C43.999 25.7909 42.2081 24 39.999 24C37.7899 24 35.999 25.7909 35.999 28C35.999 30.2091 37.7899 32 39.999 32ZM30.6901 38.4286C30.4188 38.7618 30.4187 39.2375 30.69 39.5708C32.8904 42.2738 36.2442 44.0004 40.0012 44.0004C43.7576 44.0004 47.1109 42.2743 49.3113 39.5721C49.5826 39.2389 49.5827 38.7632 49.3114 38.4299C47.111 35.7269 43.7572 34.0003 40.0002 34.0003C36.2438 34.0003 32.8905 35.7263 30.6901 38.4286Z" fill="#9544F2"/>
<g filter="url(#filter3_d)">
<rect x="12" y="84" width="56" height="18" rx="2" fill="white"/>
</g>
<rect x="16" y="88" width="34" height="4" rx="2" fill="#003D84" fill-opacity="0.1"/>
<rect x="16" y="94" width="34" height="4" rx="2" fill="#003D84" fill-opacity="0.1"/>
<circle cx="59" cy="93" r="4" stroke="#003D84" stroke-opacity="0.1" stroke-width="2"/>
<path d="M59 89C61.2091 89 63 90.7909 63 93C63 95.2091 61.2091 97 59 97C56.7909 97 55 95.2091 55 93C55 91.8927 55.4499 90.8905 56.1769 90.1663" stroke="#1BE177" stroke-width="2"/>
<g filter="url(#filter4_d)">
<rect x="12" y="128" width="56" height="18" rx="2" fill="white"/>
</g>
<rect x="16" y="132" width="34" height="4" rx="2" fill="#003D84" fill-opacity="0.1"/>
<rect x="16" y="138" width="34" height="4" rx="2" fill="#003D84" fill-opacity="0.1"/>
<circle cx="59" cy="137" r="4" stroke="#003D84" stroke-opacity="0.1" stroke-width="2"/>
<path d="M58.9999 133C61.209 133 62.9999 134.791 62.9999 137C62.9999 139.209 61.209 141 58.9999 141C57.7367 141 56.6103 140.414 55.8772 139.5" stroke="#FEDC47" stroke-width="2"/>
<g filter="url(#filter5_d)">
<rect x="12" y="106" width="56" height="18" rx="2" fill="white"/>
</g>
<rect x="16" y="110" width="34" height="4" rx="2" fill="#003D84" fill-opacity="0.1"/>
<rect x="16" y="116" width="34" height="4" rx="2" fill="#003D84" fill-opacity="0.1"/>
<circle cx="59" cy="115" r="4" stroke="#003D84" stroke-opacity="0.1" stroke-width="2"/>
<path d="M59 111C61.2091 111 63 112.791 63 115C63 116.014 62.6224 116.941 62 117.646" stroke="#FF4E63" stroke-width="2"/>
<circle cx="31" cy="6" r="1" fill="#E3F1FF"/>
<circle cx="95" cy="22" r="2" fill="#E3F1FF"/>
<circle cx="100" cy="22" r="1" fill="#E3F1FF"/>
<rect x="34" y="5" width="12" height="2" rx="1" fill="#E3F1FF"/>
</g>
<defs>
<filter id="filter0_d" x="30" y="6" width="132" height="184" filterUnits="userSpaceOnUse" color-interpolation-filters="sRGB">
<feFlood flood-opacity="0" result="BackgroundImageFix"/>
<feColorMatrix in="SourceAlpha" type="matrix" values="0 0 0 0 0 0 0 0 0 0 0 0 0 0 0 0 0 0 127 0"/>
<feOffset dy="10"/>
<feGaussianBlur stdDeviation="10"/>
<feColorMatrix type="matrix" values="0 0 0 0 0.321094 0 0 0 0 0.5875 0 0 0 0 0.853906 0 0 0 0.2 0"/>
<feBlend mode="normal" in2="BackgroundImageFix" result="effect1_dropShadow"/>
<feBlend mode="normal" in="SourceGraphic" in2="effect1_dropShadow" result="shape"/>
</filter>
<filter id="filter1_d" x="58" y="34" width="76" height="98" filterUnits="userSpaceOnUse" color-interpolation-filters="sRGB">
<feFlood flood-opacity="0" result="BackgroundImageFix"/>
<feColorMatrix in="SourceAlpha" type="matrix" values="0 0 0 0 0 0 0 0 0 0 0 0 0 0 0 0 0 0 127 0"/>
<feOffset dy="2"/>
<feGaussianBlur stdDeviation="2"/>
<feColorMatrix type="matrix" values="0 0 0 0 0.321094 0 0 0 0 0.5875 0 0 0 0 0.853906 0 0 0 0.2 0"/>
<feBlend mode="normal" in2="BackgroundImageFix" result="effect1_dropShadow"/>
<feBlend mode="normal" in="SourceGraphic" in2="effect1_dropShadow" result="shape"/>
</filter>
<filter id="filter2_d" x="-20" y="-10" width="120" height="200" filterUnits="userSpaceOnUse" color-interpolation-filters="sRGB">
<feFlood flood-opacity="0" result="BackgroundImageFix"/>
<feColorMatrix in="SourceAlpha" type="matrix" values="0 0 0 0 0 0 0 0 0 0 0 0 0 0 0 0 0 0 127 0"/>
<feOffset dy="10"/>
<feGaussianBlur stdDeviation="10"/>
<feColorMatrix type="matrix" values="0 0 0 0 0.321094 0 0 0 0 0.5875 0 0 0 0 0.853906 0 0 0 0.2 0"/>
<feBlend mode="normal" in2="BackgroundImageFix" result="effect1_dropShadow"/>
<feBlend mode="normal" in="SourceGraphic" in2="effect1_dropShadow" result="shape"/>
</filter>
<filter id="filter3_d" x="8" y="82" width="64" height="26" filterUnits="userSpaceOnUse" color-interpolation-filters="sRGB">
<feFlood flood-opacity="0" result="BackgroundImageFix"/>
<feColorMatrix in="SourceAlpha" type="matrix" values="0 0 0 0 0 0 0 0 0 0 0 0 0 0 0 0 0 0 127 0"/>
<feOffset dy="2"/>
<feGaussianBlur stdDeviation="2"/>
<feColorMatrix type="matrix" values="0 0 0 0 0.321094 0 0 0 0 0.5875 0 0 0 0 0.853906 0 0 0 0.2 0"/>
<feBlend mode="normal" in2="BackgroundImageFix" result="effect1_dropShadow"/>
<feBlend mode="normal" in="SourceGraphic" in2="effect1_dropShadow" result="shape"/>
</filter>
<filter id="filter4_d" x="8" y="126" width="64" height="26" filterUnits="userSpaceOnUse" color-interpolation-filters="sRGB">
<feFlood flood-opacity="0" result="BackgroundImageFix"/>
<feColorMatrix in="SourceAlpha" type="matrix" values="0 0 0 0 0 0 0 0 0 0 0 0 0 0 0 0 0 0 127 0"/>
<feOffset dy="2"/>
<feGaussianBlur stdDeviation="2"/>
<feColorMatrix type="matrix" values="0 0 0 0 0.321094 0 0 0 0 0.5875 0 0 0 0 0.853906 0 0 0 0.2 0"/>
<feBlend mode="normal" in2="BackgroundImageFix" result="effect1_dropShadow"/>
<feBlend mode="normal" in="SourceGraphic" in2="effect1_dropShadow" result="shape"/>
</filter>
<filter id="filter5_d" x="8" y="104" width="64" height="26" filterUnits="userSpaceOnUse" color-interpolation-filters="sRGB">
<feFlood flood-opacity="0" result="BackgroundImageFix"/>
<feColorMatrix in="SourceAlpha" type="matrix" values="0 0 0 0 0 0 0 0 0 0 0 0 0 0 0 0 0 0 127 0"/>
<feOffset dy="2"/>
<feGaussianBlur stdDeviation="2"/>
<feColorMatrix type="matrix" values="0 0 0 0 0.321094 0 0 0 0 0.5875 0 0 0 0 0.853906 0 0 0 0.2 0"/>
<feBlend mode="normal" in2="BackgroundImageFix" result="effect1_dropShadow"/>
<feBlend mode="normal" in="SourceGraphic" in2="effect1_dropShadow" result="shape"/>
</filter>
</defs>
</svg>
