<svg width="575" height="414" viewBox="0 0 575 414" fill="none" xmlns="http://www.w3.org/2000/svg">
<rect x="124" y="186" width="81" height="32" fill="white"/>
<path d="M392.418 362.562C414.652 362.562 432.676 344.538 432.676 322.304C432.676 300.071 414.652 282.047 392.418 282.047C370.185 282.047 352.161 300.071 352.161 322.304C352.161 344.538 370.185 362.562 392.418 362.562Z" fill="white" stroke="#EBE9E7" stroke-width="1.81559" stroke-miterlimit="10"/>
<path d="M394.775 317.101C390.651 317.101 387.509 320.341 387.509 324.367C387.509 328.589 390.749 331.633 394.775 331.633C398.8 331.633 402.139 328.49 402.139 324.268C402.139 320.243 398.997 317.101 394.775 317.101ZM394.775 320.832C396.542 320.832 398.015 322.305 398.015 324.268C398.015 326.134 396.542 327.705 394.775 327.705C393.007 327.705 391.534 326.134 391.534 324.268C391.534 322.403 393.007 320.832 394.775 320.832Z" fill="black"/>
<path d="M415.59 328.979C415.59 330.354 414.412 331.532 413.037 331.532C411.663 331.532 410.484 330.354 410.484 328.979C410.484 327.605 411.663 326.426 413.037 326.426C414.412 326.426 415.59 327.605 415.59 328.979Z" fill="black"/>
<path d="M408.227 331.042H404.202V313.073H408.227V331.042Z" fill="black"/>
<path fill-rule="evenodd" clip-rule="evenodd" d="M369.248 331.042L376.514 313.074H380.245L387.413 331.042H382.307L381.423 328.489H375.139L374.255 331.042H369.248ZM380.245 324.758H376.514L378.379 318.769L380.245 324.758Z" fill="black"/>
<path d="M392.418 125.247C414.652 125.247 432.676 107.223 432.676 84.9898C432.676 62.7563 414.652 44.7324 392.418 44.7324C370.185 44.7324 352.161 62.7563 352.161 84.9898C352.161 107.223 370.185 125.247 392.418 125.247Z" fill="white" stroke="#EBE9E7" stroke-width="1.81559" stroke-miterlimit="10"/>
<path fill-rule="evenodd" clip-rule="evenodd" d="M399.881 91.9591C396.837 94.2175 392.32 95.3957 388.589 95.3957C383.189 95.3957 378.377 93.432 374.744 90.0935C374.45 89.799 374.744 89.5044 375.039 89.7008C378.966 91.9591 383.876 93.3338 388.884 93.3338C392.32 93.3338 396.051 92.6465 399.488 91.1736C399.979 91.0754 400.372 91.6646 399.881 91.9591Z" fill="#FF9900"/>
<path fill-rule="evenodd" clip-rule="evenodd" d="M401.159 90.5861C400.766 90.0951 398.606 90.3897 397.624 90.4879C397.329 90.4879 397.231 90.2915 397.526 90.0951C399.293 88.8187 402.141 89.2114 402.533 89.6042C402.828 89.9969 402.435 92.9426 400.766 94.3172C400.471 94.5136 400.275 94.4154 400.373 94.1209C400.766 93.139 401.552 91.077 401.159 90.5861Z" fill="#FF9900"/>
<path fill-rule="evenodd" clip-rule="evenodd" d="M397.623 81.2585V80.0802C397.623 79.8838 397.722 79.7856 397.918 79.7856H403.318C403.515 79.7856 403.613 79.8838 403.613 80.0802V81.0621C403.613 81.2585 403.515 81.4549 403.22 81.8476L400.471 85.7752C401.551 85.7752 402.631 85.8733 403.515 86.4625C403.711 86.5607 403.809 86.757 403.809 86.9534V88.2299C403.809 88.4263 403.613 88.6226 403.417 88.5244C401.747 87.6407 399.587 87.5426 397.722 88.5244C397.525 88.6226 397.329 88.4263 397.329 88.2299V87.0516C397.329 86.8552 397.329 86.5607 397.525 86.2661L400.765 81.6512H397.918C397.82 81.6512 397.623 81.4549 397.623 81.2585Z" fill="black"/>
<path fill-rule="evenodd" clip-rule="evenodd" d="M378.084 88.8167H376.415C376.219 88.8167 376.121 88.7185 376.121 88.5221V80.0779C376.121 79.8815 376.219 79.7833 376.415 79.7833H377.986C378.183 79.7833 378.281 79.8815 378.281 80.0779V81.1579C378.674 80.0779 379.459 79.5869 380.441 79.5869C381.423 79.5869 382.11 80.0779 382.601 81.1579C382.994 80.0779 383.878 79.5869 384.859 79.5869C385.547 79.5869 386.332 79.8815 386.725 80.4706C387.216 81.1579 387.118 82.238 387.118 83.1217V88.4239C387.118 88.6203 387.02 88.7185 386.823 88.7185H385.154C384.958 88.7185 384.859 88.6203 384.859 88.4239V84.0054C384.859 83.6127 384.859 82.729 384.859 82.4344C384.761 81.8453 384.369 81.7471 383.878 81.7471C383.485 81.7471 383.092 82.0416 382.896 82.4344C382.699 82.8271 382.699 83.6127 382.699 84.0054V88.4239C382.699 88.6203 382.601 88.7185 382.405 88.7185H380.736C380.539 88.7185 380.441 88.6203 380.441 88.4239V84.0054C380.441 83.0235 380.637 81.6489 379.459 81.6489C378.281 81.6489 378.379 83.0235 378.379 84.0054V88.4239C378.379 88.6203 378.281 88.8167 378.084 88.8167Z" fill="black"/>
<path fill-rule="evenodd" clip-rule="evenodd" d="M408.228 79.6841C410.682 79.6841 411.959 81.746 411.959 84.3971C411.959 86.95 410.486 89.012 408.228 89.012C405.871 89.012 404.595 86.95 404.595 84.299C404.595 81.6479 405.871 79.6841 408.228 79.6841ZM408.326 81.3533C407.148 81.3533 407.049 83.0225 407.049 84.0044C407.049 84.9863 407.049 87.2446 408.326 87.2446C409.602 87.2446 409.7 85.4772 409.7 84.3971C409.7 83.7098 409.7 82.8261 409.504 82.1388C409.21 81.5497 408.817 81.3533 408.326 81.3533Z" fill="black"/>
<path fill-rule="evenodd" clip-rule="evenodd" d="M415.1 88.8156H413.431C413.234 88.8156 413.136 88.7174 413.136 88.5211V80.175C413.136 79.9786 413.332 79.8805 413.431 79.8805H414.903C415.002 79.8805 415.198 79.9786 415.198 80.0768V81.3533C415.689 80.175 416.278 79.6841 417.456 79.6841C418.144 79.6841 418.929 79.9786 419.322 80.666C419.715 81.3533 419.715 82.4334 419.715 83.3171V88.6193C419.715 88.7174 419.518 88.9138 419.42 88.9138H417.751C417.555 88.9138 417.456 88.8156 417.456 88.6193V84.0044C417.456 83.1207 417.555 81.746 416.474 81.746C416.082 81.746 415.689 82.0406 415.493 82.4334C415.296 82.9243 415.198 83.4153 415.198 84.0044V88.5211C415.493 88.6193 415.296 88.8156 415.1 88.8156Z" fill="black"/>
<path fill-rule="evenodd" clip-rule="evenodd" d="M393.4 84.7909C393.4 85.38 393.4 85.9692 393.106 86.5583C392.811 87.0493 392.418 87.3438 391.927 87.3438C391.338 87.3438 390.946 86.8529 390.946 86.1656C390.946 84.7909 392.222 84.4963 393.4 84.4963V84.7909ZM395.069 88.7185C394.971 88.8167 394.775 88.8167 394.677 88.7185C394.088 88.2275 393.989 88.0311 393.695 87.6384C392.811 88.5221 392.124 88.8167 391.044 88.8167C389.669 88.8167 388.589 87.933 388.589 86.2637C388.589 84.8891 389.276 84.0054 390.356 83.6126C391.24 83.2199 392.517 83.1217 393.4 83.0235V82.8271C393.4 82.4344 393.4 81.9434 393.204 81.6489C393.008 81.3543 392.615 81.2561 392.32 81.2561C391.731 81.2561 391.142 81.5507 391.044 82.238C391.044 82.3362 390.946 82.5326 390.749 82.5326L389.178 82.3362C389.08 82.3362 388.884 82.238 388.982 82.0416C389.375 80.0779 391.044 79.5869 392.615 79.5869C393.4 79.5869 394.48 79.7833 395.069 80.3724C395.855 81.1579 395.757 82.1398 395.757 83.2199V85.7728C395.757 86.5583 396.051 86.8529 396.346 87.2456C396.444 87.3438 396.444 87.5402 396.346 87.6384C395.953 87.933 395.364 88.5221 395.069 88.7185Z" fill="black"/>
<path fill-rule="evenodd" clip-rule="evenodd" d="M371.996 84.7909C371.996 85.38 371.996 85.9692 371.701 86.5583C371.407 87.0493 371.014 87.3438 370.523 87.3438C369.934 87.3438 369.541 86.8529 369.541 86.1656C369.541 84.7909 370.817 84.4963 371.996 84.4963V84.7909ZM373.665 88.7185C373.567 88.8167 373.37 88.8167 373.272 88.7185C372.683 88.2275 372.585 88.0311 372.29 87.6384C371.407 88.5221 370.719 88.8167 369.639 88.8167C368.264 88.8167 367.184 87.933 367.184 86.2637C367.184 84.8891 367.872 84.0054 368.952 83.6126C369.836 83.2199 371.112 83.1217 371.996 83.0235V82.8271C371.996 82.4344 371.996 81.9434 371.799 81.6489C371.603 81.3543 371.21 81.2561 370.916 81.2561C370.326 81.2561 369.737 81.5507 369.639 82.238C369.639 82.3362 369.541 82.5326 369.345 82.5326L367.774 82.3362C367.675 82.3362 367.479 82.238 367.577 82.0416C367.97 80.0779 369.639 79.5869 371.21 79.5869C371.996 79.5869 373.076 79.7833 373.665 80.3724C374.45 81.1579 374.352 82.1398 374.352 83.2199V85.7728C374.352 86.5583 374.647 86.8529 374.941 87.2456C375.04 87.3438 375.04 87.5402 374.941 87.6384C374.549 87.933 373.959 88.5221 373.665 88.7185Z" fill="black"/>
<path d="M287.722 411.523C309.955 411.523 327.979 393.499 327.979 371.265C327.979 349.032 309.955 331.008 287.722 331.008C265.488 331.008 247.464 349.032 247.464 371.265C247.464 393.499 265.488 411.523 287.722 411.523Z" fill="#888888"/>
<path d="M303.432 379.614C303.236 380.203 303.039 380.792 302.745 381.283C302.155 382.56 301.468 383.64 300.781 384.72C299.701 386.192 298.817 387.174 298.228 387.665C297.246 388.549 296.068 389.04 294.89 389.04C294.006 389.04 293.024 388.844 291.846 388.353C290.667 387.862 289.587 387.665 288.507 387.665C287.427 387.665 286.347 387.862 285.071 388.353C283.892 388.844 282.91 389.04 282.125 389.04C280.947 389.04 279.867 388.647 278.688 387.567C278.001 386.978 277.019 385.898 275.939 384.425C274.761 382.854 273.779 381.087 273.092 379.025C272.306 376.766 271.913 374.606 271.913 372.544C271.913 370.188 272.502 368.126 273.583 366.358C274.466 364.984 275.546 363.904 277.019 363.02C278.394 362.234 279.965 361.842 281.634 361.744C282.518 361.744 283.696 362.038 285.169 362.529C286.642 363.02 287.624 363.315 288.016 363.315C288.311 363.315 289.391 363.02 291.158 362.333C292.828 361.743 294.202 361.547 295.38 361.645C298.523 361.842 300.879 363.118 302.45 365.18C299.603 366.849 298.228 369.108 298.326 372.053C298.326 374.312 299.21 376.275 300.879 377.748C301.665 378.632 302.45 379.221 303.432 379.614ZM295.577 353.397C295.577 353.594 295.577 353.888 295.577 354.085C295.577 355.852 294.89 357.521 293.515 359.092C291.846 360.958 289.882 362.038 287.722 361.842C287.722 361.645 287.722 361.449 287.722 361.154C287.722 359.485 288.507 357.62 289.882 356.049C290.569 355.263 291.453 354.674 292.533 354.183C293.613 353.692 294.595 353.397 295.577 353.397Z" fill="white"/>
<path d="M128.257 247.884C150.491 247.884 168.515 229.86 168.515 207.627C168.515 185.393 150.491 167.369 128.257 167.369C106.024 167.369 88 185.393 88 207.627C88 229.86 106.024 247.884 128.257 247.884Z" fill="#FF5A5F"/>
<path d="M129.925 202.816C129.925 203.503 129.336 204.093 128.649 204.093C127.961 204.093 127.372 203.503 127.372 202.816C127.372 202.129 127.863 201.54 128.649 201.54C129.434 201.638 129.925 202.227 129.925 202.816ZM124.819 205.369C124.819 205.467 124.819 205.664 124.819 205.664C124.819 205.664 124.23 204.878 122.954 204.878C120.892 204.878 119.223 206.449 119.223 208.707C119.223 210.868 120.794 212.537 122.954 212.537C124.23 212.537 124.819 211.751 124.819 211.751V212.046C124.819 212.242 124.918 212.34 125.114 212.34H126.685V205.074C126.685 205.074 125.31 205.074 125.114 205.074C124.918 205.074 124.819 205.271 124.819 205.369ZM124.819 209.984C124.525 210.377 123.936 210.769 123.248 210.769C121.972 210.769 121.088 209.984 121.088 208.707C121.088 207.431 122.07 206.645 123.248 206.645C123.936 206.645 124.525 207.038 124.819 207.431V209.984ZM127.765 205.074H129.631V212.34H127.765V205.074ZM155.356 204.878C154.08 204.878 153.491 205.664 153.491 205.664V201.638H151.625V212.34C151.625 212.34 153 212.34 153.196 212.34C153.392 212.34 153.491 212.242 153.491 212.046V211.751C153.491 211.751 154.08 212.537 155.356 212.537C157.418 212.537 159.087 210.966 159.087 208.707C158.989 206.547 157.418 204.878 155.356 204.878ZM154.963 210.769C154.276 210.769 153.687 210.377 153.392 209.984V207.431C153.687 207.038 154.276 206.645 154.963 206.645C156.24 206.645 157.124 207.431 157.124 208.707C157.124 209.984 156.24 210.769 154.963 210.769ZM150.643 208.02V212.34H148.777V208.216C148.777 207.038 148.385 206.547 147.403 206.547C146.814 206.547 146.225 206.842 145.93 207.235V212.242H144.064V204.976H145.537C145.734 204.976 145.832 205.074 145.832 205.271V205.664C146.323 205.074 147.108 204.878 147.796 204.878C148.581 204.878 149.268 205.074 149.858 205.565C150.447 206.155 150.643 206.842 150.643 208.02ZM139.548 204.878C138.271 204.878 137.682 205.664 137.682 205.664V201.638H135.817V212.34C135.817 212.34 137.191 212.34 137.388 212.34C137.584 212.34 137.682 212.242 137.682 212.046V211.751C137.682 211.751 138.271 212.537 139.548 212.537C141.61 212.537 143.279 210.966 143.279 208.707C143.279 206.547 141.708 204.878 139.548 204.878ZM139.253 210.769C138.566 210.769 137.977 210.377 137.682 209.984V207.431C137.977 207.038 138.566 206.645 139.253 206.645C140.53 206.645 141.413 207.431 141.413 208.707C141.413 209.984 140.53 210.769 139.253 210.769ZM134.246 204.878C134.835 204.878 135.129 204.976 135.129 204.976V206.645C135.129 206.645 133.558 206.155 132.675 207.235V212.242H130.809V204.976C130.809 204.976 132.184 204.976 132.38 204.976C132.576 204.976 132.675 205.074 132.675 205.271V205.664C132.969 205.271 133.656 204.878 134.246 204.878ZM115.099 211.653C115.001 211.457 114.902 211.162 114.804 210.966C114.608 210.573 114.51 210.278 114.411 209.984C113.135 207.136 111.662 204.191 110.189 201.343L110.091 201.245C109.895 200.951 109.797 200.656 109.6 200.361C109.404 199.969 109.207 199.674 108.913 199.281C108.324 198.496 107.44 198.103 106.458 198.103C105.476 198.103 104.593 198.496 104.003 199.281C103.709 199.674 103.512 199.969 103.316 200.361C103.12 200.656 103.022 200.951 102.825 201.245L102.727 201.343C101.254 204.191 99.7813 207.136 98.5048 209.984C98.4067 210.278 98.2103 210.573 98.1121 210.966C98.0139 211.162 97.9157 211.359 97.8175 211.653C97.523 212.34 97.523 213.028 97.6211 213.715C97.8175 215.188 98.7994 216.366 100.076 216.857C100.567 217.053 101.058 217.152 101.647 217.152C101.843 217.152 102.04 217.152 102.138 217.152C102.727 217.053 103.414 216.857 104.102 216.464C104.887 216.072 105.673 215.384 106.458 214.501C107.342 215.384 108.029 216.072 108.815 216.464C109.404 216.857 110.091 217.053 110.778 217.152C110.975 217.152 111.171 217.152 111.269 217.152C111.76 217.152 112.349 217.053 112.84 216.857C114.215 216.366 115.099 215.09 115.295 213.715C115.393 213.028 115.393 212.34 115.099 211.653ZM106.458 212.635C105.378 211.359 104.789 210.082 104.494 209.1C104.396 208.707 104.396 208.315 104.396 207.922C104.396 207.627 104.593 207.333 104.691 207.136C105.083 206.645 105.673 206.253 106.36 206.253C107.047 206.253 107.735 206.547 108.029 207.136C108.226 207.333 108.324 207.627 108.324 207.922C108.422 208.315 108.324 208.707 108.226 209.1C108.127 210.082 107.44 211.359 106.458 212.635ZM114.117 213.617C114.019 214.599 113.331 215.482 112.349 215.875C111.859 216.072 111.368 216.17 110.877 216.072C110.386 215.973 109.895 215.875 109.404 215.581C108.716 215.188 108.029 214.599 107.244 213.715C108.52 212.144 109.306 210.769 109.6 209.493C109.698 208.904 109.797 208.315 109.698 207.824C109.6 207.333 109.404 206.94 109.207 206.547C108.618 205.664 107.636 205.173 106.458 205.173C105.28 205.173 104.298 205.664 103.709 206.547C103.414 206.94 103.316 207.333 103.218 207.824C103.12 208.315 103.12 208.904 103.316 209.493C103.611 210.769 104.396 212.242 105.673 213.715C104.887 214.599 104.2 215.188 103.512 215.581C103.022 215.875 102.531 215.973 102.04 216.072C101.549 216.17 101.058 216.072 100.567 215.875C99.5849 215.482 98.9958 214.599 98.7994 213.617C98.7012 213.126 98.7994 212.635 98.9958 212.144C99.094 211.948 99.1922 211.751 99.2904 211.555C99.3885 211.26 99.5849 210.966 99.6831 210.573C100.96 207.726 102.432 204.78 103.905 201.932L104.003 201.834C104.2 201.54 104.298 201.245 104.494 200.951C104.691 200.656 104.789 200.361 104.985 200.067C105.378 199.576 105.967 199.379 106.556 199.379C107.145 199.379 107.735 199.674 108.127 200.067C108.324 200.361 108.52 200.558 108.618 200.951C108.815 201.245 108.913 201.54 109.109 201.834L109.207 201.932C110.68 204.78 112.055 207.726 113.43 210.573C113.626 210.868 113.724 211.26 113.822 211.555C113.92 211.751 114.019 211.948 114.117 212.144C114.117 212.635 114.215 213.028 114.117 213.617Z" fill="white"/>
<path d="M445.399 245.86C467.633 245.86 485.657 227.836 485.657 205.603C485.657 183.369 467.633 165.345 445.399 165.345C423.166 165.345 405.142 183.369 405.142 205.603C405.142 227.836 423.166 245.86 445.399 245.86Z" fill="#273B7D"/>
<path d="M438.519 202.446C438.519 201.833 439.01 201.465 439.501 201.465C440.114 201.465 440.483 201.956 440.483 202.446C440.483 203.06 439.992 203.428 439.501 203.428C439.01 203.551 438.519 203.06 438.519 202.446Z" fill="white"/>
<path d="M454.352 209.196C454.352 208.582 454.843 208.214 455.334 208.214C455.948 208.214 456.316 208.705 456.316 209.196C456.316 209.81 455.825 210.178 455.334 210.178C454.843 210.178 454.352 209.687 454.352 209.196Z" fill="#499FDD"/>
<path d="M422.07 208.706C421.211 208.706 420.597 207.969 420.597 206.987C420.597 206.006 421.211 205.269 422.07 205.269C422.929 205.269 423.543 206.006 423.543 206.987C423.543 208.092 422.929 208.706 422.07 208.706ZM422.07 203.919C420.229 203.919 418.879 205.269 418.879 207.11C418.879 208.951 420.229 210.301 422.07 210.301C423.911 210.301 425.261 208.951 425.261 207.11C425.261 205.269 423.911 203.919 422.07 203.919Z" fill="white"/>
<path d="M436.554 207.232C436.432 207.109 436.432 206.987 436.309 206.864C436.432 206.741 436.432 206.619 436.554 206.496L438.15 204.041H436.186L434.959 205.882C434.836 206.005 434.713 206.005 434.591 206.005H434.345V202.446C434.345 201.709 433.854 201.586 433.486 201.586H432.627V209.932H434.345V207.478H434.468C434.713 207.478 434.836 207.478 434.836 207.6L435.818 209.441C436.063 209.932 436.309 210.055 436.8 210.055H438.15L437.168 208.46L436.554 207.232Z" fill="white"/>
<path d="M445.024 203.918C444.165 203.918 443.551 204.286 443.306 204.655L443.183 204.777V204.655C443.06 204.286 442.815 204.164 442.324 204.164H441.587V210.178H443.306V207.355C443.306 207.109 443.306 206.864 443.428 206.618C443.674 206.005 444.165 205.514 444.778 205.514C445.269 205.514 445.515 205.759 445.515 206.496V209.196C445.515 209.81 445.76 210.055 446.374 210.055H447.233V206.25C447.233 204.777 446.374 203.918 445.024 203.918Z" fill="white"/>
<path d="M439.5 204.041H438.641V208.705V210.055H439.5H439.869H440.237V204.9C440.482 204.409 440.114 204.041 439.5 204.041Z" fill="white"/>
<path d="M428.822 208.707C427.963 208.707 427.35 207.97 427.35 206.988C427.35 206.007 427.963 205.27 428.822 205.27C429.682 205.27 430.295 206.007 430.295 206.988C430.295 208.093 429.682 208.707 428.822 208.707ZM428.822 203.92C426.981 203.92 425.631 205.27 425.631 207.111C425.631 208.952 426.981 210.302 428.822 210.302C430.663 210.302 432.014 208.952 432.014 207.111C432.014 205.27 430.663 203.92 428.822 203.92Z" fill="white"/>
<path d="M465.822 208.743C464.938 208.743 464.349 208.056 464.349 207.074C464.349 206.092 464.938 205.405 465.822 205.405C466.705 205.405 467.294 206.092 467.294 207.074C467.294 208.056 466.705 208.743 465.822 208.743ZM465.822 203.932C463.956 203.932 462.68 205.209 462.68 207.074C462.68 208.94 464.054 210.216 465.822 210.216C467.687 210.216 468.964 208.94 468.964 207.074C468.964 205.209 467.589 203.932 465.822 203.932Z" fill="#499FDD"/>
<path d="M450.799 208.449C449.817 208.449 449.522 207.663 449.522 206.878C449.522 206.583 449.621 205.405 450.701 205.405C451.29 205.405 451.977 205.601 451.977 206.878C451.977 208.252 451.388 208.449 450.799 208.449ZM452.861 204.03C452.566 204.03 452.272 204.129 452.174 204.423V204.521L452.075 204.423C451.781 204.227 451.29 203.932 450.504 203.932C448.933 203.932 447.853 205.11 447.853 206.976C447.853 208.743 448.933 210.02 450.602 210.02C451.192 210.02 451.584 209.922 451.977 209.627L452.075 209.529V209.725C452.075 210.511 451.584 211.002 450.602 211.002C450.112 211.002 449.719 210.904 449.424 210.805C449.031 210.707 448.835 210.805 448.737 211.198L448.639 211.493L448.442 211.984L448.541 212.082C449.13 212.376 449.915 212.573 450.602 212.573C452.075 212.573 453.745 211.787 453.745 209.725V204.129H452.861" fill="white"/>
<path d="M415.691 208.7H414.341V206.982C414.341 206.614 414.464 206.491 414.832 206.368H415.814C416.55 206.368 416.919 206.859 416.919 207.473C416.796 208.209 416.305 208.7 415.691 208.7ZM414.218 204.159V203.668C414.218 203.3 414.341 203.054 414.709 203.054H415.446C416.06 203.054 416.428 203.423 416.428 204.036C416.428 204.527 416.182 205.018 415.446 205.018H414.218V204.159ZM417.41 205.877L417.164 205.755L417.41 205.509C417.655 205.264 418.146 204.773 418.146 203.913C418.146 202.563 417.164 201.704 415.569 201.704H413.728H413.482C412.991 201.704 412.623 202.072 412.623 202.563V210.05H413.482H415.569C417.287 210.05 418.514 209.068 418.514 207.596C418.391 206.859 418.023 206.123 417.41 205.877Z" fill="white"/>
<path d="M476.693 203.913C475.956 203.913 475.343 204.282 474.852 204.773L474.729 204.895L474.606 204.773C474.238 204.159 473.747 203.913 473.011 203.913C472.151 203.913 471.661 204.404 471.415 204.65L471.292 204.773L471.17 204.527C471.047 204.159 470.801 204.036 470.31 204.036H469.574V210.05H471.17V207.35C471.17 207.105 471.17 206.859 471.292 206.614C471.415 206 471.906 205.264 472.642 205.386C473.133 205.386 473.256 205.755 473.256 206.491V210.05H474.974V207.35C474.974 207.105 474.974 206.859 475.097 206.614C475.22 206 475.711 205.386 476.325 205.386C476.815 205.386 477.061 205.632 477.061 206.491V209.191C477.061 209.805 477.306 210.05 477.92 210.05H478.656V206.245C478.656 204.773 478.043 203.913 476.693 203.913Z" fill="#499FDD"/>
<path d="M461.718 208.088C461.718 208.088 460.981 208.825 460.122 208.825C459.263 208.825 458.404 208.334 458.404 207.106C458.404 206.124 459.017 205.388 459.999 205.388C460.368 205.388 460.613 205.511 460.736 205.633C460.858 206.002 461.227 206.124 461.349 206.124H462.209V205.388C462.209 204.406 460.858 203.915 459.999 203.915C458.036 203.915 456.685 205.265 456.685 207.106C456.685 208.947 458.036 210.297 459.877 210.297C461.472 210.297 462.454 209.193 462.454 209.193L461.718 208.088Z" fill="#499FDD"/>
<path d="M174.718 125.247C196.951 125.247 214.975 107.223 214.975 84.9898C214.975 62.7563 196.951 44.7324 174.718 44.7324C152.484 44.7324 134.461 62.7563 134.461 84.9898C134.461 107.223 152.484 125.247 174.718 125.247Z" fill="#ED1C24"/>
<path d="M180.018 60.1445H192.881V90.8776L180.018 60.1445Z" fill="white"/>
<path d="M170.887 60.1445H158.024V90.8776L170.887 60.1445Z" fill="white"/>
<path d="M169.808 84.6925L175.503 71.437L183.653 90.8784H178.252L175.798 84.6925H169.808Z" fill="white"/>
<path d="M162.738 103.744L162.345 101.289C162.247 100.602 162.05 99.5217 161.952 98.7362C161.854 99.5217 161.657 100.602 161.559 101.289L161.166 103.744H162.738ZM160.872 105.315L160.381 107.966H158.417L160.872 96.7725H163.228L165.487 107.966H163.523L163.032 105.315H160.872Z" fill="white"/>
<path d="M169.905 103.057C169.905 102.86 169.905 102.762 169.905 102.566C169.807 101.977 169.512 101.486 169.021 101.486C168.236 101.486 167.941 102.664 167.941 104.039C167.941 105.61 168.334 106.493 169.021 106.493C169.316 106.493 169.709 106.297 169.807 105.708C169.807 105.61 169.905 105.413 169.905 105.217V103.057ZM171.869 96.5762V105.708C171.869 106.395 171.869 107.279 171.967 108.064H170.2L170.102 107.181C169.807 107.77 169.218 108.261 168.432 108.261C166.763 108.261 165.978 106.395 165.978 104.137C165.978 101.289 167.254 99.9146 168.531 99.9146C169.218 99.9146 169.709 100.209 169.905 100.798V96.6744L171.869 96.5762Z" fill="white"/>
<path d="M176.09 106.593C176.875 106.593 177.072 105.12 177.072 103.942C177.072 102.764 176.875 101.291 176.09 101.291C175.206 101.291 175.108 102.764 175.108 103.942C175.01 105.316 175.206 106.593 176.09 106.593ZM175.992 108.164C174.126 108.164 172.948 106.691 172.948 104.04C172.948 101.094 174.421 99.8179 175.992 99.8179C177.857 99.8179 178.937 101.389 178.937 103.942C179.035 107.28 177.268 108.164 175.992 108.164Z" fill="white"/>
<path d="M182.178 105.119C182.178 105.315 182.178 105.511 182.277 105.61C182.473 106.297 182.866 106.493 183.062 106.493C183.848 106.493 184.142 105.511 184.142 103.94C184.142 102.467 183.848 101.486 183.062 101.486C182.669 101.486 182.375 101.878 182.277 102.369C182.277 102.467 182.178 102.762 182.178 102.86V105.119ZM180.215 96.5762H182.178V100.798C182.571 100.209 183.062 99.8164 183.848 99.8164C185.32 99.8164 186.106 101.584 186.106 103.842C186.106 106.69 184.928 108.261 183.455 108.261C182.767 108.261 182.277 107.966 181.884 107.181L181.786 108.162H180.018C180.018 107.475 180.116 106.591 180.116 105.806V96.5762H180.215Z" fill="white"/>
<path d="M191.014 103.254C191.014 102.076 190.72 101.291 190.032 101.291C189.345 101.291 188.952 102.371 188.952 103.254H191.014ZM188.952 104.629C188.952 106.102 189.738 106.593 190.72 106.593C191.309 106.593 191.8 106.495 192.192 106.298L192.487 107.771C191.996 107.968 191.112 108.164 190.327 108.164C188.167 108.164 186.988 106.691 186.988 104.138C186.988 101.389 188.363 99.8179 190.13 99.8179C191.898 99.8179 192.781 101.291 192.781 103.549C192.781 104.04 192.781 104.433 192.683 104.629H188.952Z" fill="white"/>
<path d="M287.722 84.9913C309.955 84.9913 327.979 66.9675 327.979 44.7339C327.979 22.5004 309.955 4.47656 287.722 4.47656C265.488 4.47656 247.464 22.5004 247.464 44.7339C247.464 66.9675 265.488 84.9913 287.722 84.9913Z" fill="#0061FF"/>
<path d="M262.487 41.4928L258.756 43.9476L262.487 46.4023L258.756 48.857L255.025 46.4023L258.756 43.9476L255.025 41.4928L258.756 39.0381L262.487 41.4928ZM258.756 49.5443L262.487 47.0896L266.218 49.5443L262.487 51.999L258.756 49.5443ZM262.487 46.3041L266.218 43.8494L262.487 41.3947L266.218 38.9399L269.95 41.3947L266.218 43.8494L269.95 46.3041L266.218 48.7588L262.487 46.3041Z" fill="white"/>
<path d="M273.093 41.494H276.137C278.1 41.494 279.671 42.6722 279.671 45.2251V45.8143C279.671 48.3672 278.199 49.5454 276.137 49.5454H272.995V41.494H273.093ZM274.762 42.9668V48.0726H276.038C277.119 48.0726 277.904 47.3853 277.904 45.7161V45.3233C277.904 43.7523 277.119 42.9668 276.038 42.9668H274.762V42.9668ZM280.555 42.9668H281.93L282.126 44.4396C282.421 43.3595 283.01 42.8686 284.286 42.8686H284.679V44.636H283.992C282.617 44.636 282.224 45.1269 282.224 46.5016V49.4473H280.555V42.9668V42.9668ZM285.072 46.4034V46.207C285.072 44.0469 286.446 42.8686 288.312 42.8686C290.276 42.8686 291.552 44.0469 291.552 46.207V46.4034C291.552 48.5635 290.276 49.6436 288.312 49.6436C286.25 49.6436 285.072 48.5635 285.072 46.4034ZM289.883 46.4034V46.207C289.883 45.0288 289.294 44.2432 288.312 44.2432C287.33 44.2432 286.741 44.9306 286.741 46.207V46.4034C286.741 47.5817 287.33 48.269 288.312 48.269C289.294 48.1708 289.883 47.5817 289.883 46.4034ZM292.436 42.9668H293.811L294.007 44.2432C294.4 43.4577 295.087 42.8686 296.167 42.8686C297.836 42.8686 298.916 44.0469 298.916 46.207V46.4034C298.916 48.5635 297.738 49.6436 296.167 49.6436C295.087 49.6436 294.4 49.1527 294.105 48.4654V51.7056H292.436V42.9668V42.9668ZM297.247 46.4034V46.3052C297.247 45.0288 296.56 44.3414 295.676 44.3414C294.694 44.3414 294.105 45.0288 294.105 46.3052V46.4034C294.105 47.5817 294.694 48.269 295.676 48.269C296.56 48.1708 297.247 47.5817 297.247 46.4034ZM301.371 48.269L301.273 49.4473H299.8V40.8066H301.469V44.1451C301.862 43.2614 302.549 42.8686 303.531 42.8686C305.102 42.8686 306.182 43.9487 306.182 46.1088V46.3052C306.182 48.4654 305.102 49.6436 303.433 49.6436C302.451 49.6436 301.764 49.1527 301.371 48.269ZM304.611 46.3052V46.1088C304.611 44.9306 303.924 44.2432 303.04 44.2432C302.058 44.2432 301.469 45.0287 301.469 46.1088V46.207C301.469 47.3853 302.058 48.0726 303.04 48.0726C303.924 48.1708 304.611 47.5817 304.611 46.3052ZM307.066 46.4034V46.207C307.066 44.0469 308.441 42.8686 310.306 42.8686C312.27 42.8686 313.547 44.0469 313.547 46.207V46.4034C313.547 48.5635 312.172 49.6436 310.306 49.6436C308.244 49.6436 307.066 48.5635 307.066 46.4034ZM311.877 46.4034V46.207C311.877 45.0288 311.288 44.2432 310.306 44.2432C309.324 44.2432 308.735 44.9306 308.735 46.207V46.4034C308.735 47.5817 309.324 48.269 310.306 48.269C311.288 48.1708 311.877 47.5817 311.877 46.4034ZM315.805 46.1088L313.547 42.9668H315.51L316.787 44.9306L318.161 42.9668H320.125L317.867 46.1088L320.322 49.4473H318.456L316.983 47.2871L315.51 49.4473H313.547L315.805 46.1088Z" fill="white"/>
<path d="M174.201 362.562C196.434 362.562 214.458 344.538 214.458 322.304C214.458 300.071 196.434 282.047 174.201 282.047C151.967 282.047 133.943 300.071 133.943 322.304C133.943 344.538 151.967 362.562 174.201 362.562Z" fill="white" stroke="#EBE9E7" stroke-width="1.81559" stroke-miterlimit="10"/>
<path d="M195.409 330.746C195.9 331.434 195.802 332.416 195.213 332.907C194.526 333.398 193.446 333.299 192.856 332.71L189.223 327.997L185.689 332.612C185.198 333.299 184.118 333.299 183.332 332.808C182.645 332.317 182.448 331.336 183.038 330.648L187.26 325.15L183.038 319.651C182.547 318.964 182.743 317.884 183.332 317.295C184.019 316.804 185.1 317 185.689 317.589L189.223 322.302L192.856 317.786C193.347 317.098 194.329 316.902 195.213 317.491C195.9 317.982 195.9 319.062 195.409 319.848L191.285 325.248L195.409 330.746ZM176.263 330.059C173.513 330.059 171.353 327.997 171.353 325.248C171.353 322.597 173.513 320.437 176.263 320.437C179.012 320.437 181.172 322.597 181.172 325.248C181.172 327.997 178.914 330.059 176.263 330.059ZM161.829 330.059C159.08 330.059 156.919 327.997 156.919 325.248C156.919 322.597 159.08 320.437 161.829 320.437C164.578 320.437 166.738 322.597 166.738 325.248C166.738 327.997 164.578 330.059 161.829 330.059ZM176.263 317.196C173.219 317.196 170.469 318.866 169.095 321.419C167.72 318.866 164.971 317.196 161.829 317.196C159.963 317.196 158.294 317.786 156.919 318.767V311.992C156.919 311.109 156.232 310.421 155.348 310.421C154.366 310.421 153.679 311.109 153.679 311.992V325.248C153.777 329.666 157.312 333.103 161.731 333.103C164.873 333.103 167.622 331.336 168.997 328.783C170.371 331.336 173.121 333.103 176.164 333.103C180.681 333.103 184.412 329.568 184.412 325.052C184.51 320.829 180.877 317.196 176.263 317.196Z" fill="#0071F7"/>
<path d="M214.457 135.521L360.983 282.047" stroke="#EBE9E7" stroke-width="3.70016" stroke-dasharray="7.3 7.3"/>
<path d="M214.457 282.047L360.983 135.521" stroke="#EBE9E7" stroke-width="3.70016" stroke-dasharray="7.3 7.3"/>
<path d="M287.721 312.394V105.175" stroke="#EBE9E7" stroke-width="3.70016" stroke-dasharray="7.3 7.3"/>
<path d="M184.111 208.785H391.33" stroke="#EBE9E7" stroke-width="3.70016" stroke-dasharray="7.3 7.3"/>
<circle cx="286.869" cy="209.195" r="47.4372" fill="white"/>
<path d="M286.87 181.687L254.09 191.931C254.415 194.685 254.88 198.156 255.517 201.909C257.082 211.131 259.483 220.752 262.691 226.166C265.817 231.44 272.347 237.076 278.915 241.71C281.94 243.844 284.758 245.618 286.87 246.885C288.406 245.964 290.315 244.774 292.406 243.373L297.95 248.917C291.838 253.116 286.87 255.762 286.87 255.762C286.87 255.762 264.086 243.626 256.066 230.092C248.046 216.559 245.798 186.454 245.798 186.454L286.87 173.619L327.942 186.454C327.942 186.454 325.693 216.559 317.674 230.092C315.124 234.395 311.082 238.557 306.754 242.232L301.288 236.766C305.387 233.34 308.971 229.673 311.049 226.166C314.257 220.752 316.658 211.131 318.223 201.909C318.86 198.156 319.325 194.685 319.65 191.931L286.87 181.687Z" fill="#0E6476"/>
<path d="M280.452 206.989H284.303V219.824H292.004V199.289H280.452V206.989Z" fill="#0E6476"/>
</svg>
